<?xml version="1.0" standalone="no"?>
<!DOCTYPE svg PUBLIC "-//W3C//DTD SVG 20010904//EN"
 "http://www.w3.org/TR/2001/REC-SVG-20010904/DTD/svg10.dtd">
<svg version="1.0" xmlns="http://www.w3.org/2000/svg"
 width="700.000000pt" height="700.000000pt" viewBox="0 0 700.000000 700.000000"
 preserveAspectRatio="xMidYMid meet">
<metadata>
Created by potrace 1.14, written by Peter Selinger 2001-2017
</metadata>
<g transform="translate(0.000000,700.000000) scale(0.100000,-0.100000)"
fill="#000000" stroke="none">
<path d="M5383 6945 c-12 -30 -17 -58 -12 -61 5 -3 9 -43 9 -90 0 -77 -3 -89
-27 -121 -19 -25 -30 -56 -38 -107 l-11 -71 -16 31 c-36 67 -175 168 -225 162
-27 -3 -28 -4 -31 -75 -2 -40 -6 -73 -10 -73 -4 0 -21 9 -39 19 -17 11 -69 31
-115 46 -45 14 -94 34 -108 43 -53 38 -53 33 1 -19 59 -58 97 -135 105 -214 3
-32 2 -35 -5 -15 -15 45 -63 130 -80 143 -10 6 -20 20 -24 30 -3 9 -14 17 -23
17 -10 0 -14 3 -11 7 4 3 -10 23 -32 44 -27 27 -35 41 -28 48 14 14 -7 15 -33
1 -13 -7 -58 -1 -157 20 -208 44 -351 60 -627 70 -471 17 -950 -16 -1306 -89
l-91 -19 -122 40 c-67 22 -224 66 -349 97 -265 68 -265 68 -322 -28 -67 -112
-201 -447 -256 -641 -16 -56 -17 -68 -5 -86 12 -18 10 -25 -22 -65 -101 -126
-224 -294 -273 -374 -108 -174 -183 -373 -196 -520 -6 -71 -5 -77 21 -117 38
-58 136 -187 204 -268 31 -36 70 -84 86 -105 17 -21 41 -52 55 -69 56 -68 54
-61 22 -108 -151 -223 -362 -672 -392 -836 -12 -66 -5 -81 55 -117 68 -39 171
-58 293 -52 56 3 102 3 102 1 0 -2 -22 -53 -48 -112 -45 -100 -164 -292 -231
-371 l-28 -34 -102 96 c-142 135 -333 256 -405 257 -40 0 -222 -120 -331 -220
-22 -20 -77 -56 -123 -80 -45 -24 -82 -49 -82 -56 0 -24 146 62 254 150 129
105 253 186 283 186 34 0 206 -94 292 -159 42 -32 106 -89 142 -127 217 -225
213 -230 -21 -28 -185 161 -274 224 -368 262 -53 21 -54 21 -90 3 -53 -28
-187 -154 -231 -220 -22 -31 -49 -66 -62 -79 -31 -30 -136 -113 -171 -135
l-28 -17 0 -1180 c0 -649 3 -1180 6 -1180 3 0 64 30 134 67 l129 66 59 -26
c33 -15 68 -27 79 -27 17 0 110 37 220 86 17 8 35 14 39 14 4 0 -80 -89 -188
-198 -200 -202 -328 -339 -328 -354 0 -4 67 -8 149 -8 l148 0 38 58 c21 31 68
98 105 147 94 127 123 172 115 184 -3 6 -1 29 5 52 6 22 10 43 8 44 -7 8 -246
-184 -328 -262 -89 -86 -81 -60 10 33 227 231 337 335 358 341 12 3 30 19 38
35 15 28 126 108 152 108 13 0 17 -20 5 -20 -5 -1 -33 -23 -63 -51 l-55 -51
40 7 c46 8 44 4 -27 -45 -28 -19 -54 -42 -58 -50 -4 -8 -18 -39 -32 -67 -14
-29 -22 -53 -18 -53 4 0 42 38 85 85 43 47 80 84 82 81 3 -2 -33 -62 -80 -133
-106 -161 -110 -168 -98 -190 6 -10 13 -35 16 -55 9 -55 53 -98 102 -98 65 0
185 94 170 133 -3 7 -30 25 -61 41 -56 29 -73 56 -37 56 11 0 44 -13 74 -30
56 -30 67 -30 67 2 0 10 4 18 9 18 4 0 12 37 18 82 11 96 2 133 -45 183 -37
38 -40 55 -13 55 23 0 81 -66 81 -92 0 -10 4 -18 9 -18 24 0 16 -161 -11 -217
-7 -15 -13 -35 -12 -43 0 -8 2 -23 2 -33 1 -10 6 -16 11 -13 15 10 55 -29 48
-47 -9 -24 -33 -21 -55 8 -11 14 -23 25 -26 25 -3 0 -36 -31 -73 -69 -74 -74
-121 -97 -178 -87 -66 13 -125 84 -125 153 -1 27 -1 27 -16 8 -21 -28 -124
-200 -124 -208 0 -4 152 -7 338 -7 l337 0 15 24 c8 14 42 64 75 111 l59 86 18
-36 c11 -20 16 -40 12 -46 -6 -10 -33 -115 -34 -131 0 -13 28 -9 33 5 4 9 6 9
6 0 1 -9 25 -13 86 -13 80 0 85 1 90 22 2 13 14 63 25 112 12 49 24 111 27
138 5 41 4 48 -10 42 -10 -3 -22 4 -32 20 -23 34 -35 33 -35 -3 0 -17 -4 -32
-10 -36 -5 -3 -7 -12 -4 -19 8 -21 -21 -39 -37 -24 -8 7 -26 19 -41 25 -15 7
-35 27 -44 45 l-17 33 -13 -32 c-8 -17 -18 -34 -24 -38 -5 -3 -10 -14 -10 -24
0 -31 -76 -101 -109 -101 -35 0 -63 37 -62 83 0 128 2 154 10 167 16 23 20 9
25 -80 2 -47 8 -96 13 -108 l9 -24 30 25 c17 14 39 42 49 61 11 20 23 36 27
36 5 0 8 9 8 20 0 10 5 42 11 70 9 43 14 51 31 48 14 -2 27 -22 46 -70 21 -54
30 -67 47 -66 18 2 20 7 17 65 -4 73 24 282 43 331 15 34 32 41 41 17 4 -8 -3
-66 -15 -129 -30 -159 -26 -161 19 -7 21 74 45 138 52 142 8 5 20 1 32 -11 23
-22 56 -105 56 -138 0 -46 18 -11 24 48 l7 60 44 -31 c33 -23 45 -40 50 -67 9
-50 33 -94 47 -86 7 5 9 0 5 -15 -7 -27 1 -53 14 -45 5 3 7 10 4 15 -9 14 33
62 56 66 29 4 58 -35 59 -79 0 -50 -16 -48 -31 2 -13 41 -29 54 -29 22 0 -10
-9 -28 -21 -41 -17 -18 -18 -25 -8 -37 7 -8 20 -12 30 -9 11 4 28 3 39 0 19
-6 20 -15 20 -169 0 -90 3 -178 6 -195 l7 -31 458 0 c312 0 459 3 459 10 0 6
-7 39 -14 73 -34 142 -46 204 -50 235 -1 17 -5 34 -8 37 -3 3 -25 1 -48 -4
-38 -8 -47 -7 -74 14 -17 12 -46 30 -64 39 -18 9 -54 38 -80 63 l-46 46 37 32
c62 53 163 97 238 102 74 6 99 -3 187 -69 46 -34 55 -37 75 -27 38 20 48 31
38 43 -4 6 -14 35 -21 64 -11 47 -10 55 5 72 22 24 75 46 83 34 4 -5 37 -24
73 -42 50 -25 68 -40 72 -58 5 -27 -16 -50 -34 -38 -7 4 -9 3 -6 -3 4 -6 -17
-22 -49 -37 l-57 -27 21 -20 c21 -19 22 -19 81 1 86 29 158 27 196 -6 21 -17
23 -22 8 -15 -12 6 -31 11 -43 11 -17 0 -19 -4 -14 -25 6 -23 3 -25 -25 -25
-38 0 -113 -29 -105 -41 3 -5 -2 -6 -10 -3 -44 17 0 -46 61 -88 41 -28 54 -31
109 -30 34 1 77 9 97 17 31 13 37 13 49 0 38 -42 38 -41 -16 -58 -78 -24 -110
-28 -126 -17 -16 10 -3 13 65 12 l30 -1 -30 8 c-42 10 -77 1 -82 -20 -9 -33
-40 -32 -103 5 -70 41 -90 45 -90 15 0 -28 -24 -78 -53 -109 -12 -14 -29 -35
-37 -46 -23 -33 -117 -104 -137 -104 -12 0 -7 8 17 22 19 13 41 28 48 35 8 7
23 18 35 24 19 11 19 12 3 24 -10 8 -13 16 -7 19 5 3 11 1 13 -6 6 -16 38 14
38 34 -1 9 -5 7 -14 -4 -19 -26 -26 -22 -21 12 2 17 0 28 -5 25 -5 -3 -7 -12
-4 -19 3 -7 -3 -19 -12 -27 -16 -13 -17 -12 -10 6 6 17 4 17 -18 -4 -28 -26
-36 -42 -11 -21 9 7 18 10 22 6 10 -10 -4 -18 -32 -18 -14 0 -28 -5 -31 -10
-3 -5 -16 -13 -29 -18 -14 -5 -26 -20 -30 -39 -4 -17 -11 -33 -16 -36 -5 -4
-9 -10 -9 -15 0 -6 566 -10 1453 -10 l1452 1 27 43 c15 24 41 76 58 117 l30
74 -48 46 c-30 29 -62 75 -85 123 -32 66 -95 163 -134 204 -20 21 -28 80 -28
202 0 107 1 115 20 118 50 7 135 -128 135 -213 0 -28 4 -35 19 -35 10 0 35 -7
54 -15 20 -8 50 -15 67 -15 24 0 32 6 44 33 17 42 97 167 106 167 4 0 20 -4
36 -10 16 -5 54 -11 84 -14 30 -3 57 -5 60 -6 3 0 -2 -5 -10 -10 -12 -8 -12
-10 5 -10 11 0 31 -10 44 -21 l24 -20 -22 -23 c-16 -16 -21 -31 -16 -44 5 -17
12 -20 43 -15 86 14 103 36 55 72 l-28 20 35 30 35 29 -27 11 c-15 5 -38 20
-52 32 -23 20 -24 24 -11 42 13 19 11 22 -23 40 -39 21 -61 44 -62 65 0 9 12
4 31 -13 25 -20 40 -25 72 -23 22 2 42 9 45 16 2 7 -12 28 -31 47 l-34 34 49
11 c39 10 52 10 65 -1 20 -17 56 -96 49 -108 -3 -5 -12 -38 -20 -74 -13 -65
-13 -66 10 -71 13 -4 39 -20 59 -37 19 -17 35 -26 35 -21 0 13 -45 49 -71 57
-20 7 -25 42 -11 78 6 15 18 10 87 -38 78 -55 290 -185 300 -185 13 0 3 20
-24 49 -35 38 -203 269 -362 501 -28 41 -61 85 -72 98 -11 12 -17 22 -12 22 4
0 109 -103 232 -230 124 -126 229 -230 234 -230 5 0 9 108 9 253 l0 252 -68
39 c-64 38 -117 71 -261 163 -72 46 -61 48 -161 -17 -25 -15 -52 -29 -60 -29
-8 -1 -35 -19 -60 -41 -25 -22 -51 -40 -57 -40 -7 0 -13 -3 -13 -7 0 -5 -17
-19 -38 -33 -20 -14 -39 -28 -42 -31 -3 -3 -20 -14 -37 -23 -36 -18 -39 -26
-21 -44 8 -8 9 -12 1 -12 -6 0 -13 5 -15 10 -2 6 -16 3 -35 -7 -42 -23 -115
-92 -108 -103 3 -5 1 -11 -5 -15 -5 -3 -10 -1 -10 5 0 6 -5 8 -10 5 -7 -4 -6
-13 1 -26 6 -12 8 -23 6 -26 -3 -2 -8 5 -12 16 -3 12 -11 21 -17 21 -14 0
-118 -91 -187 -164 -31 -32 -62 -65 -68 -72 -7 -7 -14 -30 -14 -51 -1 -23 -3
-29 -6 -15 -7 33 -18 27 -63 -32 l-42 -55 26 -83 c14 -45 24 -84 22 -85 -2 -2
-18 21 -37 52 -18 30 -37 55 -41 55 -13 0 -49 -80 -87 -197 l-38 -113 -21 23
c-12 13 -22 30 -22 38 0 8 -9 31 -20 51 -16 31 -20 59 -22 160 -2 114 0 129
29 212 30 88 30 89 12 120 -43 73 -93 255 -153 561 -61 315 -78 416 -70 424 4
3 9 0 12 -8 2 -7 25 -38 50 -69 35 -43 54 -81 84 -171 22 -64 61 -161 88 -216
33 -69 55 -133 71 -207 13 -60 27 -108 31 -108 3 0 9 12 13 28 3 15 12 36 20
46 15 19 16 19 59 -2 35 -18 59 -22 132 -21 l89 1 -52 19 c-52 20 -153 106
-153 131 0 22 99 161 136 191 39 33 41 45 14 80 -25 32 -26 47 -1 19 20 -24
31 -28 31 -12 0 5 13 22 28 37 16 16 49 56 75 90 26 34 58 70 72 81 14 11 25
25 25 30 0 6 25 32 55 58 31 26 68 66 84 89 l28 41 -34 35 c-59 59 -59 75 1
25 67 -58 75 -48 10 14 -56 55 -73 86 -149 274 l-60 148 -77 28 c-66 24 -136
60 -117 60 4 0 37 -13 75 -28 71 -29 160 -55 227 -67 20 -3 37 -10 37 -16 0
-21 196 -339 208 -338 4 0 22 19 40 42 19 23 51 61 73 84 21 23 39 47 39 54 0
6 -37 50 -81 97 -76 80 -80 86 -59 94 19 7 33 -3 100 -74 43 -46 81 -80 85
-76 4 4 -25 42 -64 85 l-71 78 55 16 c129 39 203 115 211 217 l4 57 -13 -45
c-6 -25 -19 -54 -27 -65 -23 -30 -86 -55 -154 -62 -66 -6 -125 12 -209 64 -42
26 -196 227 -197 256 0 9 -4 17 -9 17 -5 0 -30 29 -55 65 -25 36 -43 65 -39
65 3 0 21 -14 41 -31 61 -54 128 -72 184 -50 13 5 43 28 66 51 53 52 52 65
-13 179 -25 43 -45 80 -45 82 0 3 21 2 47 -1 44 -5 50 -9 71 -48 27 -48 52
-132 52 -174 0 -41 37 -48 68 -13 21 25 23 35 17 79 -3 28 -19 77 -35 108
l-29 57 57 16 c31 9 77 27 102 40 60 31 139 101 146 131 3 13 9 24 13 24 16 0
41 62 41 102 -1 66 -51 159 -112 208 l-25 19 8 -44 c17 -90 -35 -228 -104
-277 -26 -19 -29 -19 -85 -3 -77 23 -196 86 -282 149 -152 113 -319 287 -369
384 -14 26 -81 241 -81 259 0 8 9 9 32 2 48 -13 116 -11 183 6 72 19 103 39
133 91 47 79 13 246 -73 359 l-27 34 23 32 c32 45 68 138 69 176 0 30 -30 77
-70 111 -86 73 -316 217 -452 283 -38 18 -68 39 -68 46 0 15 31 4 105 -36 52
-28 67 -27 132 10 45 26 57 29 64 18 5 -8 9 -17 9 -20 0 -18 86 -42 157 -43
73 -1 78 0 81 21 2 14 -11 36 -41 68 l-45 46 52 29 c44 26 106 40 106 25 0 -3
-10 -38 -22 -78 -12 -39 -22 -96 -22 -125 -1 -48 2 -55 26 -70 21 -12 30 -14
39 -5 7 7 21 71 33 144 l22 132 34 11 c42 13 54 46 17 46 -32 0 -37 8 -27 35
5 14 5 26 -3 34 -20 20 -36 12 -58 -30 l-21 -42 -62 7 c-45 4 -67 2 -81 -8
-11 -7 -69 -30 -130 -50 -60 -21 -120 -44 -132 -52 -12 -7 -29 -14 -37 -14
-17 0 -268 101 -331 132 -49 25 -55 33 -55 80 0 33 5 41 38 61 20 13 51 28 67
34 17 5 31 16 32 24 1 8 5 40 8 73 l7 58 28 -27 c24 -23 28 -36 32 -95 3 -57
9 -77 33 -111 35 -50 139 -135 177 -144 23 -6 30 -1 55 36 19 29 27 54 27 81
-1 33 1 38 15 32 31 -13 139 -16 175 -4 35 11 36 12 36 65 0 30 -9 79 -21 110
l-20 55 49 45 c27 25 56 59 63 77 11 28 10 36 -16 85 -30 57 -107 133 -135
133 -15 0 -14 7 6 68 28 79 33 198 10 189 -21 -8 -156 12 -186 28 -33 18 -17
23 75 28 39 2 20 3 -41 3 -109 -1 -113 -2 -157 -34 -48 -34 -67 -41 -47 -17 6
8 41 31 77 51 57 32 68 42 89 90 26 58 30 84 14 84 -5 0 -10 -6 -10 -12 0 -10
-3 -9 -9 1 -7 11 -10 9 -15 -7 -10 -31 -64 -84 -124 -122 -66 -41 -72 -35 -72
68 l0 72 -34 0 c-31 0 -34 -3 -53 -55z m-3413 -154 c234 -60 245 -63 385 -108
138 -44 165 -58 165 -84 0 -11 9 -53 20 -92 39 -142 162 -707 156 -722 -2 -5
-7 4 -11 20 -12 53 -45 141 -41 110 4 -25 1 -31 -15 -32 -14 -1 -19 5 -19 22
0 13 -4 27 -10 30 -18 11 -12 -14 66 -307 47 -172 50 -205 24 -219 -8 -4 -152
-76 -320 -159 -168 -84 -313 -159 -323 -168 -20 -18 -22 -16 -52 40 -8 14 -54
86 -103 160 -49 73 -101 153 -116 178 -15 25 -52 86 -82 135 -131 211 -284
476 -284 491 0 56 152 467 232 629 51 103 69 125 103 125 17 0 118 -22 225
-49z m3630 -5 c0 -2 -8 -10 -17 -17 -16 -13 -17 -12 -4 4 13 16 21 21 21 13z
m267 -78 c-3 -7 -5 -2 -5 12 0 14 2 19 5 13 2 -7 2 -19 0 -25z m-2457 -29 c0
-8 28 -10 93 -6 240 15 387 19 442 12 116 -15 20 -24 -444 -39 -29 -1 -51 -9
-69 -25 -20 -18 -52 -27 -151 -42 -69 -11 -178 -30 -241 -42 l-115 -23 -1 42
c-1 38 2 43 25 47 14 3 51 13 81 22 79 23 287 63 338 64 25 1 42 -4 42 -10z
m1110 -14 c30 -32 22 -39 -22 -21 -31 13 -38 13 -54 1 -11 -8 -23 -14 -29 -14
-5 0 -2 4 8 10 9 5 17 16 17 24 0 32 50 32 80 0z m638 -40 c32 -22 32 -23 9
-21 -14 0 -24 3 -22 5 6 5 -17 25 -45 39 l-25 12 25 -6 c14 -4 40 -17 58 -29z
m-639 -14 c-6 -2 -18 4 -27 13 -15 15 -15 15 10 4 15 -7 23 -15 17 -17z m1215
7 c15 -71 16 -102 5 -138 -7 -22 -17 -40 -22 -40 -20 0 5 -14 26 -15 55 -2
108 -50 127 -115 7 -25 5 -33 -16 -49 -14 -11 -38 -23 -54 -26 -36 -8 -37 -15
-5 -65 19 -31 25 -51 23 -92 l-2 -53 -3 48 c-2 26 -8 47 -14 47 -5 0 -9 7 -9
15 0 16 -57 76 -97 102 -36 24 -28 30 32 25 35 -3 55 -1 55 6 0 7 -14 9 -37 5
-26 -4 -34 -3 -29 5 5 8 -2 12 -18 12 -14 0 -26 -4 -26 -10 0 -5 -4 -10 -10
-10 -5 0 -10 7 -10 15 0 8 -7 15 -16 15 -18 0 62 -94 103 -120 26 -16 30 -42
9 -59 -22 -18 -45 -2 -56 40 -10 38 -17 43 -50 40 -11 -1 -12 0 -3 6 13 10 7
21 -22 43 -16 11 -17 11 -7 0 17 -20 15 -35 -3 -20 -13 10 -15 9 -17 -11 0
-13 -4 -1 -8 26 l-7 50 -1 -51 c-1 -27 3 -55 9 -61 15 -15 -7 -55 -29 -51 -15
3 -17 16 -15 91 0 50 -3 85 -8 81 -5 -3 -9 -12 -9 -20 0 -8 -7 -14 -17 -14
-15 0 -15 1 0 18 10 10 17 26 17 35 0 9 6 17 13 17 10 0 12 14 7 58 -13 114
42 200 150 233 38 11 39 11 44 -13z m-477 -94 c-3 -3 -11 3 -18 15 -9 13 -17
17 -24 11 -8 -7 -12 -1 -12 19 l0 28 30 -34 c16 -18 27 -36 24 -39z m-507 15
c0 -3 -6 -6 -14 -6 -8 0 -11 8 -8 20 4 14 7 16 13 5 5 -7 9 -16 9 -19z m535
-49 c3 -6 -1 -7 -9 -4 -18 7 -21 14 -7 14 6 0 13 -4 16 -10z m604 -15 c28 -14
91 -89 91 -108 0 -6 -17 10 -39 34 -21 24 -50 51 -65 58 -14 8 -26 18 -26 23
0 11 7 10 39 -7z m-1255 -85 c26 -22 43 -40 37 -40 -6 0 -11 -5 -11 -11 0 -6
7 -9 15 -5 17 6 59 -46 69 -86 3 -14 9 -33 12 -42 4 -10 1 -16 -9 -16 -10 0
-13 8 -11 28 l4 27 -10 -29 c-10 -32 -5 -50 12 -40 7 5 9 -2 4 -22 -4 -16 -7
-34 -8 -41 -2 -18 -28 -25 -28 -8 0 8 5 15 10 15 15 0 12 36 -4 49 -8 6 -19
25 -26 40 -6 16 -24 34 -38 39 -39 15 -85 25 -102 24 -10 -1 -11 0 -2 4 14 7
17 44 3 44 -12 0 -41 -28 -41 -40 0 -14 -44 -20 -52 -7 -11 18 -10 49 2 42 6
-3 10 2 10 12 0 15 2 16 10 3 9 -13 14 -11 36 13 25 29 38 35 83 36 33 1 18
14 -19 16 -18 1 -36 -5 -46 -17 -10 -10 -22 -18 -28 -18 -13 0 55 69 69 70 6
0 32 -18 59 -40z m-202 -102 c-7 -7 -12 -8 -12 -2 0 14 12 26 19 19 2 -3 -1
-11 -7 -17z m660 -39 c69 -58 98 -89 82 -89 -4 0 -15 6 -23 14 -9 8 -51 32
-95 55 -43 22 -84 45 -92 52 -19 16 -8 29 26 29 21 0 50 -17 102 -61z m208 58
c0 -2 -7 -27 -15 -55 -24 -80 -85 -113 -85 -44 0 33 5 40 40 60 22 12 40 27
40 32 0 6 5 10 10 10 6 0 10 -1 10 -3z m-872 -54 c-2 -10 -10 -17 -16 -15 -19
3 -14 -16 9 -39 14 -14 18 -27 13 -42 -6 -18 -4 -20 7 -10 11 9 14 7 15 -13
l2 -24 -28 23 c-15 12 -23 24 -18 25 13 6 9 22 -6 22 -20 0 -26 46 -9 70 17
25 36 26 31 3z m36 -28 c-4 -8 -10 -13 -15 -10 -4 3 -6 12 -3 20 4 8 10 13 15
10 4 -3 6 -12 3 -20z m1043 -111 c3 3 21 -1 39 -9 29 -12 36 -12 49 1 8 9 15
20 15 25 0 17 19 9 25 -10 6 -20 -16 -84 -33 -95 -14 -9 -98 61 -111 92 -11
28 -15 70 -11 112 2 14 7 -8 12 -48 6 -40 12 -71 15 -68z m-893 100 c18 -17
21 -45 7 -59 -4 -6 -6 -41 -3 -79 3 -46 7 -64 14 -55 6 10 8 1 6 -26 -2 -22
-7 -44 -13 -48 -5 -5 1 -5 15 -2 14 4 30 14 37 22 6 8 16 12 21 9 11 -6 69 20
90 41 23 22 61 16 68 -11 8 -35 -2 -46 -42 -46 -37 0 -168 -60 -146 -67 7 -3
19 1 28 7 8 7 17 10 21 6 4 -3 -1 -12 -11 -19 -17 -12 -15 -15 21 -42 21 -16
40 -32 43 -35 19 -23 67 -50 87 -50 30 0 52 -42 33 -65 -21 -26 -60 -19 -71
13 -9 26 -97 102 -117 102 -5 0 -17 9 -27 20 -23 26 -45 26 -45 0 0 -13 -5
-18 -16 -13 -9 3 -13 12 -8 22 14 35 16 51 5 51 -7 0 -9 -5 -6 -10 3 -6 -3
-23 -14 -39 -12 -16 -21 -34 -21 -39 0 -6 -4 -12 -8 -14 -15 -6 -52 -79 -52
-102 0 -30 -22 -48 -52 -44 -17 2 -24 10 -26 34 -2 24 2 33 23 42 14 6 25 18
25 25 0 8 9 26 21 41 20 25 14 37 -8 15 -8 -8 -13 -7 -18 2 -5 7 -4 10 3 5 12
-7 87 63 77 73 -4 3 -15 -5 -26 -18 -21 -25 -25 -21 -9 10 11 19 -3 29 -14 10
-3 -4 -16 -6 -29 -4 -15 3 -34 -4 -53 -20 -34 -28 -74 -43 -74 -28 0 6 6 11
14 11 25 0 105 54 106 70 0 21 -97 70 -137 70 -38 0 -55 32 -30 57 18 18 67
10 67 -11 0 -17 83 -43 88 -27 2 7 14 4 32 -9 15 -11 38 -20 50 -20 21 0 22 4
18 45 -3 25 -2 45 3 45 4 0 10 -24 12 -52 2 -35 4 -21 5 38 2 74 -1 93 -13 98
-30 11 -8 86 25 86 5 0 16 -7 24 -16z m-151 -28 c4 -10 1 -13 -9 -9 -15 6 -19
23 -5 23 5 0 11 -7 14 -14z m450 -43 c83 -84 114 -141 86 -159 -8 -4 -9 1 -4
16 5 15 4 20 -4 16 -6 -4 -11 -19 -11 -34 0 -15 -6 -34 -13 -43 -16 -22 -96
-61 -110 -55 -7 2 -4 5 6 5 9 1 17 6 17 11 0 6 3 9 8 8 14 -5 82 42 82 57 0 8
-4 15 -10 15 -5 0 -12 16 -16 36 -4 20 -17 46 -30 57 -13 11 -24 28 -24 36 1
13 3 12 15 -3 8 -11 26 -32 39 -47 16 -18 23 -35 20 -51 -3 -18 -2 -16 7 5 10
25 8 30 -10 43 -12 8 -21 20 -21 26 0 15 -48 58 -65 58 -7 0 -15 4 -17 8 -1 5
-14 5 -28 1 -24 -7 -24 -7 5 -9 17 -1 24 -4 17 -7 -6 -2 -10 -9 -6 -14 3 -5
-4 -9 -15 -9 -12 0 -21 5 -21 10 0 6 -7 10 -16 10 -13 0 -13 -2 -2 -13 7 -8
20 -17 28 -20 8 -4 2 -4 -15 -1 -37 7 -39 9 -31 29 5 13 77 54 97 55 3 0 22
-17 42 -37z m-617 -5 c-25 -25 -61 -48 -73 -48 -5 0 6 9 22 20 17 11 26 20 20
20 -10 0 34 27 47 29 4 1 -3 -9 -16 -21z m94 -8 c22 -11 40 -26 40 -32 0 -6
-8 -4 -18 5 -10 10 -21 14 -25 11 -3 -4 -14 1 -23 10 -18 18 -41 16 -36 -3 1
-7 -2 -10 -8 -6 -8 5 -7 11 1 21 15 18 22 18 69 -6z m-160 -4 c0 -3 -4 -8 -10
-11 -5 -3 -10 -1 -10 4 0 6 5 11 10 11 6 0 10 -2 10 -4z m655 -6 c-3 -5 -10
-10 -16 -10 -5 0 -9 5 -9 10 0 6 7 10 16 10 8 0 12 -4 9 -10z m850 -36 c17
-15 26 -25 20 -23 -21 8 -85 54 -85 62 0 11 29 -7 65 -39z m51 -21 c-11 -11
-19 6 -11 24 8 17 8 17 12 0 3 -10 2 -21 -1 -24z m-996 23 c0 -2 -9 -6 -20 -9
-11 -3 -20 -1 -20 4 0 5 9 9 20 9 11 0 20 -2 20 -4z m-545 -26 c-3 -5 -11 -10
-16 -10 -6 0 -7 5 -4 10 3 6 11 10 16 10 6 0 7 -4 4 -10z m-122 -15 c-3 -9 -8
-14 -10 -11 -3 3 -2 9 2 15 9 16 15 13 8 -4z m104 -27 c-3 -8 -6 -5 -6 6 -1
11 2 17 5 13 3 -3 4 -12 1 -19z m493 -22 c0 -3 -4 -8 -10 -11 -5 -3 -10 -1
-10 4 0 6 5 11 10 11 6 0 10 -2 10 -4z m-570 -91 c0 -16 -27 28 -34 55 -5 19
-2 16 13 -10 11 -19 20 -39 21 -45z m790 65 c0 -5 -5 -10 -11 -10 -5 0 -7 5
-4 10 3 6 8 10 11 10 2 0 4 -4 4 -10z m-490 -60 c0 -5 -4 -10 -10 -10 -5 0
-10 5 -10 10 0 6 5 10 10 10 6 0 10 -4 10 -10z m-1794 -54 c-3 -12 -6 -25 -7
-31 -1 -12 -17 25 -18 41 -1 6 6 11 15 11 11 0 14 -7 10 -21z m1589 14 c-3 -5
-1 -10 6 -10 7 0 10 -3 6 -6 -9 -9 -28 6 -22 17 4 5 8 9 11 9 3 0 2 -4 -1 -10z
m-39 -15 c9 -8 11 -15 6 -15 -5 0 -15 7 -22 15 -7 8 -9 15 -6 15 4 0 14 -7 22
-15z m668 -11 c9 -3 16 -10 16 -16 0 -5 -5 -6 -12 -2 -6 4 -25 11 -42 15 -30
7 -30 7 -4 8 14 1 33 -2 42 -5z m-587 -10 c-3 -3 -12 -4 -19 -1 -8 3 -5 6 6 6
11 1 17 -2 13 -5z m373 2 c0 -3 -4 -8 -10 -11 -5 -3 -10 -1 -10 4 0 6 5 11 10
11 6 0 10 -2 10 -4z m-1987 -26 c3 -11 1 -18 -4 -14 -5 3 -9 -5 -9 -17 0 -12
-3 -20 -6 -16 -6 5 4 67 11 67 1 0 5 -9 8 -20z m1604 4 c-3 -3 -12 -4 -19 -1
-8 3 -5 6 6 6 11 1 17 -2 13 -5z m323 -16 c0 -16 -3 -19 -11 -11 -6 6 -8 16
-5 22 11 17 16 13 16 -11z m325 12 c3 -5 2 -10 -4 -10 -5 0 -13 5 -16 10 -3 6
-2 10 4 10 5 0 13 -4 16 -10z m-245 -4 c0 -2 -7 -6 -15 -10 -8 -3 -15 -1 -15
4 0 6 7 10 15 10 8 0 15 -2 15 -4z m-314 -32 c-11 -8 -27 -14 -35 -14 -10 0
-4 8 14 20 33 21 51 17 21 -6z m745 -35 c41 -29 89 -88 89 -108 0 -14 -16 -4
-59 39 -33 32 -69 61 -80 65 -12 3 -21 13 -21 21 0 19 32 11 71 -17z m119 2
c0 -6 -4 -13 -10 -16 -5 -3 -10 1 -10 9 0 9 5 16 10 16 6 0 10 -4 10 -9z
m-933 -83 c-3 -7 -5 -2 -5 12 0 14 2 19 5 13 2 -7 2 -19 0 -25z m403 0 c0 -5
-9 -3 -20 4 -11 7 -20 16 -20 20 0 5 9 3 20 -4 11 -7 20 -16 20 -20z m-62 -33
c-3 -3 -9 2 -12 12 -6 14 -5 15 5 6 7 -7 10 -15 7 -18z m79 3 c2 -17 0 -19 -7
-8 -5 8 -6 18 -4 22 8 12 10 10 11 -14z m761 -52 c48 -24 137 -74 197 -111 61
-37 122 -75 137 -84 31 -18 38 -38 11 -26 -28 12 -174 55 -187 55 -6 0 -41 24
-78 53 -36 28 -91 71 -122 94 -48 37 -69 63 -51 63 3 0 45 -20 93 -44z m-713
14 c3 -5 1 -10 -4 -10 -6 0 -11 5 -11 10 0 6 2 10 4 10 3 0 8 -4 11 -10z m576
-58 c69 -46 86 -57 107 -76 12 -11 22 -28 22 -38 0 -14 -14 -5 -53 35 -29 30
-69 60 -90 68 -20 7 -37 17 -37 21 0 13 23 9 51 -10z m-96 -118 c0 -15 -6 -19
-29 -17 -16 1 -41 -4 -57 -12 -35 -18 -39 -19 -39 -1 0 7 15 19 33 26 17 6 41
16 52 20 28 12 40 7 40 -16z m-444 -95 c16 -8 18 -13 8 -25 -23 -28 -68 -11
-55 21 6 18 20 19 47 4z m369 -45 c30 -20 65 -40 78 -45 28 -11 40 -38 21 -50
-26 -16 -48 -10 -55 16 -4 17 -26 35 -70 60 -36 20 -62 40 -59 46 10 16 29 10
85 -27z m-154 -7 c4 -4 0 -7 -9 -7 -9 0 -17 -7 -17 -15 0 -9 -7 -30 -16 -48
-12 -21 -13 -32 -5 -35 6 -2 11 -14 11 -28 0 -32 -47 -46 -66 -19 -11 15 -11
22 0 44 28 55 46 103 41 111 -6 10 51 7 61 -3z m401 7 c-3 -3 -12 -4 -19 -1
-8 3 -5 6 6 6 11 1 17 -2 13 -5z m326 -20 c60 -10 100 -22 125 -39 20 -14 30
-25 23 -25 -8 0 -23 7 -33 17 -22 19 -25 1 -3 -21 19 -18 19 -27 1 -20 -8 3
-17 1 -20 -5 -4 -6 -13 -8 -22 -4 -8 3 -14 2 -13 -3 3 -20 -2 -34 -12 -34 -6
0 -8 10 -5 23 3 12 4 17 1 11 -3 -6 -51 12 -121 47 -66 32 -139 61 -172 67
-49 9 -42 9 53 5 61 -2 150 -11 198 -19z m-415 -6 c24 -27 42 -70 41 -101 0
-15 -2 -17 -6 -7 -3 8 -9 17 -13 20 -3 3 -19 23 -33 45 -41 60 -33 89 11 43z
m74 -18 c16 0 88 -108 93 -141 6 -31 4 -29 -21 19 -15 29 -49 73 -76 98 -26
25 -48 49 -48 55 0 5 10 1 22 -11 12 -11 25 -20 30 -20z m-1747 0 c7 -12 -16
-22 -122 -50 -45 -12 -87 -19 -94 -15 -7 5 -10 4 -6 -2 8 -12 -38 -27 -53 -18
-27 17 6 33 145 71 91 25 121 28 130 14z m1978 -36 c144 -73 234 -155 310
-283 59 -100 75 -167 55 -237 l-15 -49 5 65 c3 50 -1 78 -18 123 -12 31 -25
55 -30 52 -4 -3 -6 4 -3 15 3 12 0 20 -6 20 -7 0 -10 -4 -7 -8 3 -5 0 -9 -7
-9 -7 0 -13 8 -13 18 0 10 4 15 8 13 17 -11 7 8 -19 34 l-26 27 18 -29 c17
-28 17 -29 0 -22 -15 5 -16 4 -5 -9 10 -12 10 -19 2 -27 -9 -9 -12 -8 -12 5 0
9 -7 17 -15 17 -8 0 -15 4 -15 8 0 14 -141 157 -193 196 l-49 36 32 0 c42 0
31 14 -38 50 -31 16 -51 29 -44 30 7 0 45 -16 85 -36z m-510 -27 c-2 -4 3 -10
11 -13 9 -3 16 -12 16 -20 0 -8 8 -14 18 -15 10 0 12 -3 4 -6 -16 -6 -72 47
-72 70 0 15 2 16 14 5 8 -7 12 -16 9 -21z m-253 9 c0 -3 -4 -8 -10 -11 -5 -3
-10 -1 -10 4 0 6 5 11 10 11 6 0 10 -2 10 -4z m200 -41 c0 -33 -4 -45 -15 -45
-16 0 -21 35 -6 44 5 3 7 15 4 26 -3 11 0 20 6 20 6 0 11 -19 11 -45z m797
-18 l-24 -46 -20 22 c-19 21 -21 53 -3 42 5 -3 7 -12 3 -20 -3 -9 1 -15 10
-15 18 0 30 27 17 35 -16 10 -11 25 5 19 9 -4 18 1 22 12 4 10 8 13 10 8 2 -5
-7 -31 -20 -57z m-1032 44 c3 -5 1 -12 -5 -16 -5 -3 -10 1 -10 9 0 18 6 21 15
7z m-1485 -21 c0 -5 -5 -10 -11 -10 -5 0 -7 5 -4 10 3 6 8 10 11 10 2 0 4 -4
4 -10z m2227 -51 c80 -44 125 -78 117 -91 -5 -7 -2 -8 5 -3 7 4 22 -2 37 -16
l24 -22 -54 -51 c-29 -28 -74 -66 -100 -84 l-46 -33 -9 23 c-50 135 -49 131
-39 198 5 36 7 75 5 88 -2 12 -3 22 -1 22 1 0 29 -14 61 -31z m-524 -16 c-7
-2 -19 -2 -25 0 -7 3 -2 5 12 5 14 0 19 -2 13 -5z m-13 -17 c0 -2 -12 -12 -27
-21 l-28 -18 19 21 c17 20 36 29 36 18z m-3778 -312 c42 -33 96 -72 118 -88
30 -21 40 -34 37 -47 -5 -20 4 -18 36 9 24 21 22 1 -3 -26 -11 -12 -20 -24
-20 -28 0 -4 -17 -30 -37 -58 -20 -28 -51 -76 -69 -106 -17 -30 -63 -107 -101
-170 -38 -63 -84 -149 -102 -190 -32 -71 -144 -427 -157 -497 -12 -62 -44 -26
-37 42 13 136 169 484 342 767 39 64 71 122 71 128 0 14 -33 57 -140 185 -217
258 -270 331 -270 370 0 14 36 -16 128 -106 70 -70 162 -153 204 -185z m4579
104 c12 -23 24 -70 27 -103 l4 -61 -52 -12 c-28 -7 -70 -12 -93 -12 -48 1
-139 30 -144 46 -2 6 25 30 59 52 35 23 83 62 108 86 25 25 51 45 57 46 7 0
22 -19 34 -42z m59 12 c0 -5 -2 -10 -4 -10 -3 0 -8 5 -11 10 -3 6 -1 10 4 10
6 0 11 -4 11 -10z m-650 -36 c0 -12 -14 -34 -22 -34 -5 0 -6 5 -3 10 10 17 -7
11 -22 -7 -13 -16 -13 -16 -4 3 6 12 7 24 4 28 -4 3 6 5 20 4 15 -1 27 -3 27
-4z m-60 -14 c0 -5 -2 -10 -4 -10 -3 0 -8 5 -11 10 -3 6 -1 10 4 10 6 0 11 -4
11 -10z m-950 -166 c25 -73 11 -60 -20 19 -12 31 -26 60 -31 63 -5 3 -9 13 -9
22 0 27 37 -37 60 -104z m107 73 c8 -16 11 -27 6 -24 -5 3 -14 -2 -20 -12 -8
-12 -7 -22 2 -35 12 -16 14 -15 17 11 l4 28 8 -29 c10 -33 -11 -56 -30 -31 -6
8 -15 11 -19 7 -4 -4 -6 5 -3 19 3 18 -1 30 -14 38 -17 11 -24 41 -12 54 14
14 47 0 61 -26z m51 -5 c6 -18 -15 -14 -22 4 -4 10 -1 14 6 12 6 -2 14 -10 16
-16z m46 -34 c6 -4 7 -10 3 -14 -9 -9 -36 25 -36 46 0 10 3 9 11 -5 6 -11 16
-23 22 -27z m-40 -9 c-3 -6 3 -13 15 -16 12 -3 21 -11 21 -18 0 -15 35 -47 43
-39 3 4 -4 15 -16 26 l-22 20 25 -14 c22 -14 57 -61 59 -80 2 -20 -19 -5 -25
18 -4 15 -12 23 -20 20 -7 -3 -16 -1 -20 5 -3 5 -15 7 -27 4 -12 -2 -16 -2 -9
1 6 3 12 10 12 15 0 4 -6 7 -12 5 -7 -1 -10 -1 -5 1 14 8 7 25 -8 19 -8 -3
-16 -2 -16 2 -6 32 -5 51 3 46 4 -3 6 -10 2 -15z m-372 -29 c19 -34 19 -34
-16 -19 -17 8 -29 9 -38 2 -7 -6 -38 -13 -68 -17 -38 -4 -50 -3 -40 3 8 6 15
16 15 23 0 7 15 15 33 19 18 4 36 9 39 13 4 3 18 6 32 6 18 0 31 -9 43 -30z
m38 5 c7 -9 8 -15 2 -15 -5 0 -12 7 -16 15 -3 8 -4 15 -2 15 2 0 9 -7 16 -15z
m1234 -47 c14 -33 15 -43 4 -49 -20 -13 -24 -11 -36 16 -18 40 -14 75 9 75 4
0 14 -19 23 -42z m-1533 0 c26 -29 24 -31 -13 -23 -50 11 -55 36 -9 44 2 1 12
-9 22 -21z m-406 -75 c-27 -8 -54 -19 -59 -24 -6 -5 -18 -9 -28 -9 -10 0 -18
-4 -18 -10 0 -5 -13 -8 -30 -7 -42 3 -37 14 13 27 23 6 60 17 82 25 22 7 51
13 65 14 15 0 6 -6 -25 -16z m2000 -17 c13 -13 35 -47 50 -76 15 -29 81 -113
148 -186 117 -129 147 -167 116 -148 -8 4 -2 -8 12 -27 14 -18 47 -65 74 -104
27 -38 54 -73 60 -77 7 -5 6 -8 -1 -8 -6 0 -20 12 -30 27 -33 46 -76 89 -70
70 3 -11 2 -16 -5 -12 -5 4 -7 15 -4 26 8 24 -3 25 -21 2 -7 -10 -14 -13 -14
-6 0 6 5 15 10 18 15 9 12 25 -5 25 -9 0 -31 16 -50 36 -31 31 -35 33 -35 15
0 -26 -11 -27 -40 -1 -34 30 -54 26 -45 -7 4 -16 5 -26 2 -23 -13 14 -86 164
-82 168 3 3 5 -1 5 -9 0 -11 2 -11 10 1 8 12 10 10 10 -10 0 -14 5 -32 11 -40
8 -11 9 -8 5 15 -5 21 -4 26 3 15 6 -8 13 -11 17 -8 3 4 -6 22 -21 40 -15 17
-31 42 -36 55 -5 13 -14 23 -21 22 -10 0 -10 -2 0 -6 14 -5 17 -33 3 -33 -12
0 -24 37 -16 50 4 6 -1 7 -12 3 -17 -6 -17 -5 -1 13 17 17 18 17 44 -7 33 -30
90 -111 86 -122 -1 -5 2 -6 8 -2 5 3 10 1 10 -5 0 -6 5 -8 12 -4 8 5 6 11 -5
19 -10 7 -17 15 -17 19 0 8 -37 62 -64 93 -10 12 -35 28 -55 34 -43 14 -65 31
-102 83 -35 47 -37 74 -6 86 32 13 36 12 62 -14z m-2140 -47 c-5 -8 -65 -30
-65 -24 0 20 16 33 40 33 16 -1 27 -4 25 -9z m-117 -54 c0 -21 -3 -23 -14 -14
-11 9 -11 15 -3 25 15 19 17 18 17 -11z m-172 -40 c-3 -8 -1 -15 4 -15 5 0 8
-9 7 -20 -1 -11 -5 -20 -9 -20 -4 0 -8 9 -8 20 0 11 -7 20 -15 20 -8 0 -15 5
-15 11 0 6 7 9 15 5 8 -3 15 -1 15 4 0 6 3 10 6 10 3 0 4 -7 0 -15z m2147
-102 c31 -109 41 -173 67 -418 10 -95 11 -381 2 -445 -4 -25 -7 35 -7 135 0
178 -5 264 -25 440 -13 114 -49 304 -61 327 -5 10 -6 18 -1 18 5 0 16 -26 25
-57z m361 -142 c14 -36 26 -69 26 -75 -2 -26 -90 194 -90 222 1 9 9 -5 19 -33
10 -27 30 -79 45 -114z m6 120 c0 -4 -6 -8 -14 -8 -8 0 -12 6 -9 14 5 13 23 9
23 -6z m-2118 -189 c54 -40 101 -72 104 -72 4 0 21 -11 38 -23 28 -22 213
-127 222 -127 2 0 27 -11 56 -25 28 -14 59 -25 67 -25 9 0 22 -4 30 -9 11 -7
4 -19 -35 -54 -27 -25 -58 -60 -68 -79 l-19 -33 37 35 c21 20 34 27 31 18 -4
-10 -10 -18 -14 -18 -9 0 -67 -98 -76 -129 -6 -18 1 -14 31 19 56 62 204 170
234 170 4 0 -6 -26 -23 -57 -29 -52 -32 -66 -32 -144 0 -69 5 -95 24 -137 22
-47 26 -50 52 -45 34 7 49 -18 30 -49 -7 -11 -11 -21 -9 -22 2 -1 16 -12 32
-24 38 -29 58 -28 26 1 -23 20 -25 27 -18 70 7 53 19 73 49 82 23 8 18 39 -12
68 -24 22 -24 32 -1 49 10 7 22 25 25 39 9 35 42 44 68 18 10 -10 27 -19 38
-19 31 0 46 -26 31 -55 -17 -33 -8 -52 37 -70 21 -9 50 -30 64 -46 l26 -31 14
34 c9 20 14 69 14 128 0 78 -4 102 -22 135 -21 40 -70 92 -108 114 -19 12 -18
12 5 7 14 -3 33 -6 43 -6 10 0 16 -4 13 -9 -3 -4 24 -16 60 -26 l66 -18 -4
-151 c-2 -83 -9 -160 -15 -171 -6 -11 -13 -40 -16 -65 -5 -39 -4 -43 8 -27 7
10 16 37 19 61 4 24 12 51 19 60 11 14 12 13 13 -9 1 -14 -2 -22 -7 -19 -9 5
-10 -1 -13 -56 -1 -30 18 -42 27 -17 2 6 7 9 11 6 3 -3 -7 -24 -24 -47 -29
-40 -78 -74 -103 -71 -19 2 -57 -12 -57 -22 0 -12 41 -11 79 2 18 6 34 10 36
8 7 -8 -55 -141 -86 -184 -19 -27 -28 -48 -23 -57 4 -7 4 -10 -1 -6 -4 4 -32
-15 -62 -42 -30 -28 -63 -50 -74 -50 -10 0 -19 -4 -19 -10 0 -6 30 -10 71 -10
63 0 80 5 150 40 103 52 144 79 198 129 l44 40 -5 -67 c-11 -140 -121 -349
-262 -496 -36 -38 -66 -72 -66 -76 0 -4 -48 -54 -107 -111 -108 -105 -216
-187 -327 -250 -80 -44 -173 -50 -347 -20 -68 11 -173 28 -234 36 -311 44
-451 100 -581 233 -65 66 -78 92 -46 92 25 1 149 45 178 65 32 20 26 29 -10
15 -48 -18 -219 26 -280 73 -18 13 -18 14 7 21 36 9 34 26 -2 26 -19 0 -35 8
-44 20 -21 30 -86 98 -152 158 -59 54 -74 87 -75 160 0 39 5 39 50 2 51 -44
72 -38 28 8 -43 44 -58 72 -58 106 0 13 -6 26 -12 29 -10 3 -9 9 3 23 9 10 24
34 33 51 9 18 30 49 48 68 l31 36 -26 -7 c-56 -13 -24 5 59 35 98 36 128 40
67 10 -35 -17 -42 -26 -48 -57 -13 -81 51 -235 122 -296 19 -15 25 -16 38 -6
8 7 15 25 15 41 0 18 7 32 20 39 18 10 20 8 20 -26 0 -30 -3 -35 -17 -30 -16
5 -15 4 1 -9 14 -11 17 -22 13 -44 -6 -27 -3 -31 21 -37 15 -4 39 -13 53 -22
19 -10 31 -12 44 -4 16 8 14 11 -16 17 -64 13 -79 30 -79 86 0 28 4 58 10 68
7 14 3 22 -20 40 -34 25 -36 33 -15 55 8 8 12 21 9 29 -6 16 20 47 40 47 8 0
19 -7 26 -15 7 -9 19 -14 27 -11 8 4 18 -5 24 -22 20 -50 24 -54 62 -67 49
-17 50 -17 59 -73 6 -39 6 -35 3 23 -5 103 -31 171 -85 224 l-45 44 40 -7 40
-7 -25 24 c-42 41 -120 78 -198 93 -86 16 -158 18 -167 4 -3 -5 -16 -10 -28
-10 -12 0 -53 -20 -91 -45 l-68 -45 6 137 c4 76 9 159 12 185 l6 47 68 15 c38
9 77 16 87 16 10 -1 40 -30 68 -67 28 -37 72 -90 98 -119 39 -44 45 -53 30
-57 -11 -3 -6 -5 11 -6 25 -1 106 -54 127 -83 3 -4 54 -37 113 -73 145 -87
271 -127 411 -131 55 -1 84 0 65 2 -117 14 -240 39 -293 59 -70 26 -139 57
-147 66 -3 3 -32 22 -65 42 -33 20 -78 53 -100 73 -38 34 -39 35 -10 24 17 -6
31 -11 33 -11 14 4 32 -1 32 -10 0 -6 -7 -8 -16 -5 -9 3 -12 2 -9 -5 4 -5 15
-7 25 -4 11 4 39 -7 73 -29 116 -74 358 -174 427 -175 63 -2 108 -9 142 -25
69 -30 63 -16 -9 23 -40 21 -89 51 -109 67 -20 16 -44 35 -54 42 -9 7 -50 14
-91 16 -121 5 -267 53 -345 112 -17 13 -35 24 -40 24 -5 1 -27 17 -49 37 -22
19 -30 30 -18 24 12 -6 28 -9 35 -8 7 2 10 2 6 0 -5 -3 -8 -9 -8 -15 0 -7 5
-6 14 1 9 8 21 8 40 1 14 -5 26 -6 26 -1 0 5 -15 12 -32 16 -45 11 -51 13 -65
14 -7 0 -13 6 -13 12 0 6 9 9 19 6 22 -5 75 44 86 81 8 28 22 28 30 1 4 -11
12 -18 18 -16 13 5 13 11 2 40 -4 9 -3 17 3 17 6 0 15 -12 20 -27 6 -16 11
-22 11 -14 1 7 34 -22 73 -64 158 -169 337 -276 458 -274 28 0 22 4 -35 19
-162 44 -244 100 -314 215 -27 44 -47 81 -46 83 2 2 26 -8 53 -22 49 -25 213
-83 297 -105 75 -20 180 -30 235 -22 53 7 51 7 -50 14 -106 6 -238 37 -251 58
-4 6 -12 9 -18 5 -11 -7 -124 41 -129 56 -2 4 -8 8 -13 8 -6 0 -35 16 -65 35
-30 19 -59 35 -64 35 -6 0 -10 5 -10 10 0 6 -9 10 -19 10 -11 0 -21 3 -23 8
-1 4 -18 19 -36 35 -19 15 -27 27 -19 27 8 0 25 -11 38 -25 13 -13 28 -25 32
-25 5 0 27 -13 50 -28 23 -16 49 -32 57 -35 8 -4 33 -18 55 -31 53 -34 121
-66 137 -66 7 0 -5 10 -27 21 -71 38 -94 58 -89 77 5 14 4 15 -5 2 -10 -13
-12 -13 -21 0 -5 8 -10 11 -10 5 0 -5 -5 -2 -11 7 -5 9 -15 15 -22 13 -8 -4
-13 7 -14 29 -1 29 2 35 25 41 15 3 37 16 48 27 21 19 23 19 54 3 40 -21 60
-6 28 21 -19 16 -20 16 -9 1 8 -9 11 -20 8 -23 -3 -3 -11 4 -17 16 -7 14 -8
26 -2 32 5 5 25 -12 50 -46 59 -78 196 -211 248 -242 41 -24 136 -53 178 -54
32 0 13 9 -50 26 -32 8 -79 24 -103 36 -105 51 -317 295 -367 423 -35 89 -114
301 -114 304 0 2 24 -18 53 -46 28 -27 96 -82 149 -121z m813 -77 c113 -59
155 -85 155 -94 0 -4 -13 -14 -29 -24 -35 -20 -90 -22 -134 -3 -57 24 -204
172 -309 312 -5 7 44 -23 109 -66 65 -43 159 -99 208 -125z m1479 80 c3 -8 1
-15 -4 -15 -6 0 -10 7 -10 15 0 8 2 15 4 15 2 0 6 -7 10 -15z m256 -116 c226
-184 330 -277 362 -324 17 -24 -25 11 -112 95 -17 17 -151 129 -179 150 -59
44 -165 137 -191 166 -32 36 -20 28 120 -87z m-310 41 c0 -17 -23 13 -33 45
-6 16 -3 15 13 -5 11 -14 20 -32 20 -40z m20 50 c0 -5 -4 -10 -10 -10 -5 0
-10 5 -10 10 0 6 5 10 10 10 6 0 10 -4 10 -10z m-105 -10 c3 -5 1 -10 -4 -10
-6 0 -11 5 -11 10 0 6 2 10 4 10 3 0 8 -4 11 -10z m15 -41 c0 -6 -4 -7 -10 -4
-5 3 -10 11 -10 16 0 6 5 7 10 4 6 -3 10 -11 10 -16z m-4084 -141 c-11 -191
-26 -300 -47 -340 -12 -21 -93 -24 -213 -7 -106 14 -165 49 -84 49 28 0 37 13
18 25 -5 3 -10 11 -10 16 0 6 4 8 9 5 12 -8 27 13 35 47 4 16 2 27 -4 27 -5 0
-10 -11 -10 -25 0 -14 -5 -25 -11 -25 -6 0 -9 7 -5 15 3 8 1 15 -4 15 -6 0
-10 -4 -10 -9 0 -5 -13 -23 -30 -39 -16 -17 -30 -26 -30 -21 0 5 9 18 20 29
11 11 20 22 20 25 0 11 218 229 255 255 22 16 51 40 65 54 14 13 29 25 34 25
5 1 6 -51 2 -121z m955 10 c18 -35 46 -86 65 -114 l32 -52 -62 -16 c-35 -8
-71 -19 -81 -22 -16 -6 -17 -2 -12 52 4 32 9 94 12 137 4 42 9 77 11 77 2 0
18 -28 35 -62z m876 4 c7 -7 13 -21 12 -30 0 -13 -2 -12 -9 4 -5 12 -13 25
-19 29 -6 3 -11 14 -10 23 0 14 2 14 6 2 4 -8 12 -21 20 -28z m2027 -127 c46
-191 64 -298 65 -405 1 -47 2 -92 3 -100 1 -8 0 -33 -2 -55 -2 -30 -5 -22 -10
35 -18 184 -40 361 -54 430 -22 109 -46 222 -53 245 -3 13 -2 17 5 10 5 -5 26
-77 46 -160z m-1579 137 c-3 -3 -11 0 -18 7 -9 10 -8 11 6 5 10 -3 15 -9 12
-12z m2522 -85 c111 -63 167 -80 292 -86 l115 -6 -33 -33 c-64 -63 -79 -66
-176 -33 -92 31 -181 92 -298 203 l-62 59 50 -35 c28 -19 78 -50 112 -69z
m-2454 66 c-4 -10 -10 -10 -26 -1 -31 15 -31 15 1 14 19 -1 28 -5 25 -13z
m637 -14 c27 -17 50 -37 50 -45 0 -18 2 -18 -46 5 -22 11 -52 23 -67 26 -30 8
-33 15 -15 33 17 17 22 16 78 -19z m-2821 -159 c26 -178 96 -376 169 -481 57
-83 177 -181 278 -230 36 -17 64 -33 61 -35 -4 -4 -91 19 -174 47 -58 18 -165
83 -209 126 -32 30 -44 37 -44 25 0 -33 22 -95 66 -188 36 -75 60 -108 123
-173 44 -45 76 -81 72 -81 -19 0 -133 94 -188 156 -95 105 -127 177 -164 379
-29 154 -32 188 -32 361 0 105 4 206 9 225 9 40 8 44 33 -131z m2328 124 c-3
-3 -12 -4 -19 -1 -8 3 -5 6 6 6 11 1 17 -2 13 -5z m338 -34 c-3 -5 -16 -10
-28 -9 -20 1 -20 2 3 9 14 4 26 8 28 9 2 1 0 -3 -3 -9z m-112 -17 c-7 -2 -19
-2 -25 0 -7 3 -2 5 12 5 14 0 19 -2 13 -5z m-1171 -17 c7 4 8 2 4 -5 -9 -13
-26 -5 -25 12 0 9 2 8 6 -1 2 -6 10 -9 15 -6z m148 -16 c12 -7 12 -12 2 -22
-10 -10 -15 -10 -22 2 -19 29 -9 39 20 20z m-1673 -152 c-7 -96 -35 -241 -62
-317 -8 -24 -14 -46 -12 -48 6 -6 55 101 81 178 15 43 26 63 26 49 0 -37 -27
-136 -45 -164 -8 -12 -12 -25 -9 -29 7 -7 -61 -144 -83 -165 -7 -7 -18 -21
-25 -31 -7 -10 -51 -45 -98 -77 -47 -32 -91 -64 -98 -71 -17 -17 -37 -17 -51
0 -8 11 -5 19 15 38 41 39 170 238 209 324 20 44 41 89 46 100 11 24 52 143
82 238 11 37 23 67 26 67 2 0 1 -42 -2 -92z m4071 5 c53 -74 56 -79 158 -197
33 -39 77 -93 98 -121 20 -27 80 -94 134 -149 53 -54 90 -95 82 -90 -31 18
-135 89 -140 95 -3 4 -43 48 -89 98 -46 51 -98 111 -116 134 -58 76 -195 296
-195 313 0 12 12 -3 68 -83z m-1750 8 c-7 -12 -16 -21 -21 -21 -4 0 0 11 10
24 22 29 30 27 11 -3z m-1157 -8 c13 -16 12 -17 -3 -4 -17 13 -22 21 -14 21 2
0 10 -8 17 -17z m-1561 -20 c-18 -7 -36 -11 -39 -8 -3 3 5 8 17 12 12 3 22 9
22 14 0 5 7 6 16 2 12 -4 8 -9 -16 -20z m1620 -43 c19 -22 40 -38 47 -36 7 3
15 1 18 -4 4 -6 -2 -10 -12 -10 -11 0 -39 20 -63 45 -24 25 -40 45 -34 45 6 0
26 -18 44 -40z m50 10 c0 -5 -2 -10 -4 -10 -3 0 -8 5 -11 10 -3 6 -1 10 4 10
6 0 11 -4 11 -10z m1660 -115 c0 -3 -11 1 -25 7 -14 6 -25 18 -25 27 0 12 -2
13 -8 3 -9 -14 -42 -6 -42 10 0 6 7 8 15 5 8 -4 17 -2 20 3 5 8 65 -43 65 -55z
m-1610 35 c0 -12 -37 -14 -44 -2 -2 4 6 9 20 10 13 1 24 -3 24 -8z m1731 -113
c-10 -9 -11 -8 -5 6 3 10 9 15 12 12 3 -3 0 -11 -7 -18z m1381 -39 c12 -17 17
-28 10 -25 -6 4 -21 22 -34 39 -12 17 -17 28 -10 25 6 -4 21 -22 34 -39z
m-2637 -38 c3 -6 -4 -10 -17 -10 -18 0 -20 2 -8 10 19 12 18 12 25 0z m71 -3
c4 -3 1 -13 -5 -21 -7 -8 -9 -21 -5 -27 4 -8 3 -9 -5 -5 -7 5 -9 16 -5 28 3
12 2 18 -3 15 -5 -4 -10 0 -10 7 0 14 21 16 33 3z m1218 -42 c-13 -27 -32 -54
-41 -59 -16 -9 -7 9 45 92 25 39 23 18 -4 -33z m-1157 -5 l35 -31 -29 7 c-15
4 -32 11 -38 17 -7 7 -4 8 8 4 24 -9 21 0 -4 14 -15 8 -19 8 -15 0 4 -6 2 -11
-3 -11 -12 0 -14 13 -4 23 10 11 13 9 50 -23z m1178 -9 c-3 -12 -10 -21 -15
-21 -4 0 -3 11 3 24 14 29 22 27 12 -3z m412 -8 c-3 -10 -5 -4 -5 12 0 17 2
24 5 18 2 -7 2 -21 0 -30z m723 -23 c0 -5 -2 -10 -4 -10 -3 0 -8 5 -11 10 -3
6 -1 10 4 10 6 0 11 -4 11 -10z m-775 -29 c-9 -16 -25 -3 -18 15 4 10 9 12 15
6 6 -6 7 -15 3 -21z m1010 3 c15 -10 34 -14 48 -10 21 5 31 -5 77 -72 30 -42
58 -80 64 -84 6 -4 7 -10 4 -14 -8 -8 -86 55 -173 138 -60 57 -67 73 -20 42z
m-4291 -186 c16 -34 86 -217 86 -224 0 -2 -8 -4 -19 -4 -15 0 -25 22 -54 113
-54 169 -74 252 -42 180 8 -18 21 -47 29 -65z m-105 40 c-1 -84 -12 -107 -61
-136 -26 -15 -84 -60 -129 -101 l-82 -75 -21 26 c-12 14 -39 46 -60 72 -21 26
-37 48 -35 49 2 2 40 14 83 27 83 26 197 87 256 139 44 38 50 38 49 -1z m4457
-56 c-17 -16 -18 -16 -5 5 7 12 15 20 18 17 3 -2 -3 -12 -13 -22z m147 -19
c18 -10 39 -23 47 -29 8 -7 49 -29 90 -50 67 -34 81 -37 151 -37 50 1 88 7
109 18 44 23 48 13 7 -18 -53 -41 -112 -68 -188 -88 l-71 -18 -51 25 c-70 36
-127 80 -168 131 -45 57 -45 58 -7 70 46 15 46 15 81 -4z m-163 -7 c0 -3 -4
-8 -10 -11 -5 -3 -10 -1 -10 4 0 6 5 11 10 11 6 0 10 -2 10 -4z m-1664 -31
c-9 -9 -16 -13 -16 -8 0 12 22 34 28 28 2 -2 -3 -11 -12 -20z m1611 -1 c-3 -3
-12 -4 -19 -1 -8 3 -5 6 6 6 11 1 17 -2 13 -5z m-4297 -29 c5 -14 7 -45 4 -68
-8 -55 11 -77 65 -77 44 0 54 -9 71 -67 9 -28 20 -45 34 -49 34 -10 85 -53
101 -85 14 -26 14 -32 1 -58 -9 -16 -27 -43 -42 -61 -20 -23 -24 -34 -15 -39
14 -9 5 -107 -12 -131 -8 -10 -5 -10 7 2 10 9 20 27 22 40 11 71 20 93 42 96
30 5 29 -22 -3 -54 -33 -33 -32 -35 9 -15 23 11 34 22 33 35 -2 15 10 23 57
37 54 16 63 17 105 2 65 -21 78 -35 62 -69 -30 -66 -70 -102 -136 -123 -82
-27 -89 -26 -105 4 -16 30 -39 32 -68 5 -28 -26 -45 -26 -37 1 5 14 3 19 -3
15 -6 -3 -13 -19 -17 -35 -3 -15 -19 -38 -36 -50 -16 -12 -28 -28 -27 -35 2
-7 -23 -39 -54 -70 -32 -32 -60 -66 -63 -75 -4 -14 -15 -17 -58 -15 -28 2
-117 5 -197 8 -120 3 -153 7 -191 25 l-46 21 -69 -27 c-38 -15 -133 -59 -211
-98 -117 -59 -143 -69 -147 -56 -15 50 -26 145 -26 218 0 128 42 369 68 395
11 11 194 58 223 58 10 0 38 19 61 43 24 24 82 66 130 95 l86 52 42 -14 c48
-16 87 -9 107 20 12 18 10 25 -12 58 l-25 37 35 31 c87 76 128 97 188 98 31 0
39 -4 47 -25z m4103 18 c-7 -2 -19 -2 -25 0 -7 3 -2 5 12 5 14 0 19 -2 13 -5z
m154 1 c-3 -3 -12 -4 -19 -1 -8 3 -5 6 6 6 11 1 17 -2 13 -5z m-4217 -124 c0
-5 -2 -10 -4 -10 -3 0 -8 5 -11 10 -3 6 -1 10 4 10 6 0 11 -4 11 -10z m-358
-59 c-9 -16 -18 -28 -21 -26 -4 5 27 55 34 55 2 0 -4 -13 -13 -29z m1083 -41
c3 -5 1 -10 -4 -10 -6 0 -11 5 -11 10 0 6 2 10 4 10 3 0 8 -4 11 -10z m35 -29
c0 -6 -4 -12 -8 -15 -5 -3 -9 1 -9 9 0 8 4 15 9 15 4 0 8 -4 8 -9z m-1690 -45
c0 -2 2 -11 5 -19 3 -7 0 -14 -7 -14 -7 0 -22 -4 -32 -9 -14 -5 -17 -4 -12 4
4 7 2 12 -3 12 -6 0 -11 -7 -11 -16 0 -10 -5 -14 -16 -10 -8 3 -12 2 -9 -4 3
-6 -1 -10 -9 -10 -23 0 -20 10 11 42 17 18 37 28 55 28 15 0 28 -2 28 -4z m54
-21 c-4 -8 -7 -15 -9 -15 -2 0 -5 7 -9 15 -3 9 0 15 9 15 9 0 12 -6 9 -15z
m1659 -32 c-7 -2 -21 -2 -30 0 -10 3 -4 5 12 5 17 0 24 -2 18 -5z m-1752 -90
c-6 -10 -11 -12 -11 -5 0 6 -8 12 -17 13 -12 1 -9 4 7 8 31 10 35 7 21 -16z
m-61 -9 c0 -10 6 -14 14 -11 10 4 13 1 9 -9 -3 -7 -14 -14 -25 -14 -10 0 -16
5 -13 10 3 6 -1 10 -11 10 -13 0 -14 -3 -4 -15 7 -8 24 -15 39 -15 25 -1 25
-1 6 -13 -33 -19 -85 -35 -85 -26 0 5 -4 9 -10 9 -5 0 -7 -7 -4 -15 4 -8 1
-15 -5 -15 -22 0 -20 59 2 93 14 21 26 27 53 27 25 0 34 -4 34 -16z m4460
-136 c-7 -73 -21 -171 -30 -218 -33 -158 -54 -245 -60 -250 -4 -3 -12 -27 -20
-53 -17 -62 -59 -175 -59 -161 -1 6 10 44 24 84 37 109 93 365 116 530 29 208
30 213 36 206 3 -3 0 -65 -7 -138z m-3172 104 c2 -7 -6 -12 -17 -12 -21 0 -27
11 -14 24 9 9 26 2 31 -12z m-1426 -83 c-1 -20 -11 -53 -22 -74 -23 -44 -25
-82 -9 -119 9 -19 8 -41 -6 -101 -18 -75 -18 -76 3 -128 12 -29 22 -64 22 -77
-1 -22 -2 -21 -16 10 -29 66 -110 387 -116 460 -3 34 -3 35 57 52 81 23 91 20
87 -23z m4865 -169 c49 -221 87 -352 126 -442 41 -94 50 -119 44 -124 -6 -6
-87 160 -87 179 0 7 -14 48 -30 91 -17 44 -29 85 -26 91 2 7 1 16 -4 21 -12
12 -57 235 -63 314 -6 73 -6 73 40 -130z m-4823 145 c3 -8 1 -15 -4 -15 -6 0
-10 7 -10 15 0 8 2 15 4 15 2 0 6 -7 10 -15z m3699 -32 c-8 -66 -30 -184 -34
-186 -2 -1 -31 -15 -64 -31 -65 -30 -216 -122 -280 -170 -22 -16 -68 -57 -102
-92 l-62 -62 -7 31 c-9 45 -57 156 -88 205 -14 23 -26 43 -26 46 0 2 21 -1 48
-6 99 -20 159 -11 254 37 101 52 251 161 331 241 18 18 33 32 34 33 2 0 0 -20
-4 -46z m-3590 21 c-7 -3 -9 -12 -6 -20 7 -18 -6 -18 -30 1 -18 13 -17 14 5
18 32 6 45 6 31 1z m-66 -44 c4 -12 3 -12 -5 -2 -7 11 -10 11 -15 -2 -4 -9
-17 -16 -31 -16 -17 0 -27 -8 -34 -27 -9 -24 -11 -25 -11 -7 -1 34 37 76 67
72 14 -2 27 -10 29 -18z m4070 -112 c-2 -13 -4 -5 -4 17 -1 22 1 32 4 23 2
-10 2 -28 0 -40z m-2613 -5 c44 -93 137 -204 245 -296 24 -20 40 -37 37 -37
-11 0 -115 82 -173 136 -29 27 -60 49 -70 49 -13 0 -18 8 -19 30 0 17 -10 48
-21 70 -27 52 -37 85 -26 85 5 0 17 -17 27 -37z m1036 -36 c69 -17 126 -31
127 -31 3 -2 30 -171 28 -174 -2 -2 -16 2 -32 10 -18 8 -37 32 -55 71 l-28 57
-94 0 c-89 0 -146 12 -146 32 0 4 4 8 10 8 5 0 7 6 4 14 -3 8 0 24 6 36 9 16
17 20 33 15 12 -3 78 -20 147 -38z m2967 -12 c0 -8 -4 -15 -9 -15 -4 0 -8 7
-8 15 0 8 4 15 8 15 5 0 9 -7 9 -15z m-4232 -35 c26 -27 28 -33 16 -51 -7 -12
-9 -19 -4 -17 4 2 29 14 54 27 57 29 105 23 152 -19 32 -28 32 -28 12 -50 -10
-12 -61 -42 -111 -67 -97 -48 -133 -52 -178 -18 -18 13 -18 15 4 50 33 54 16
54 -21 1 -18 -25 -38 -46 -43 -46 -17 0 -76 38 -76 49 0 15 89 129 118 150 36
27 43 26 77 -9z m2832 -17 c-3 -10 -5 -2 -5 17 0 19 2 27 5 18 2 -10 2 -26 0
-35z m-4080 1 c15 -14 14 -16 -7 -12 -13 1 -25 9 -28 16 -5 17 16 15 35 -4z
m4070 -91 c-3 -10 -5 -2 -5 17 0 19 2 27 5 18 2 -10 2 -26 0 -35z m-2537 -9
c-6 -16 -19 -61 -30 -101 -11 -40 -26 -75 -32 -79 -8 -5 -9 -1 -4 12 4 10 10
48 13 84 4 51 11 71 31 92 30 33 35 31 22 -8z m2527 -56 c-3 -8 -6 -5 -6 6 -1
11 2 17 5 13 3 -3 4 -12 1 -19z m1130 -43 c0 -8 -4 -12 -9 -9 -5 3 -6 10 -3
15 9 13 12 11 12 -6z m-5187 -40 c-7 -9 -15 -13 -17 -11 -7 7 7 26 19 26 6 0
6 -6 -2 -15z m1017 -42 c-3 -10 -5 -4 -5 12 0 17 2 24 5 18 2 -7 2 -21 0 -30z
m10 -395 c-1 -62 -3 -14 -3 107 0 121 2 172 3 113 2 -59 2 -158 0 -220z m347
240 c-19 -37 -82 -122 -163 -218 l-55 -65 61 53 c33 28 64 52 67 52 4 0 -52
-60 -124 -132 -73 -73 -135 -139 -139 -147 -5 -7 -10 -10 -13 -5 -9 16 11 68
35 94 12 14 43 52 67 85 57 78 203 255 259 312 21 22 24 8 5 -29z m-1014 -31
c0 -2 -10 -12 -22 -23 l-23 -19 19 23 c18 21 26 27 26 19z m2330 -107 c-17
-11 -8 -13 60 -15 58 -2 180 -45 181 -63 0 -11 2 -12 6 -4 6 16 23 16 23 -1 0
-15 -19 -25 -129 -66 -113 -43 -128 -45 -141 -21 -6 12 -16 49 -21 82 -8 48
-7 63 3 69 9 6 7 9 -7 10 l-20 0 20 9 c27 12 43 12 25 0z m-1375 -20 c-3 -5
-11 -10 -16 -10 -6 0 -7 5 -4 10 3 6 11 10 16 10 6 0 7 -4 4 -10z m2806 -102
c-22 -53 -55 -67 -41 -18 11 38 28 60 46 60 10 0 9 -9 -5 -42z m55 4 c-8 -9
-18 -13 -22 -10 -8 9 19 37 29 31 5 -3 2 -12 -7 -21z m392 -54 c42 -23 88 -52
102 -65 13 -13 27 -23 31 -23 7 0 31 -51 27 -56 -4 -3 -160 109 -214 154 -51
43 -38 40 54 -10z m1223 5 c22 -20 46 -48 53 -62 18 -34 9 -88 -20 -127 -29
-38 -30 -50 -4 -91 11 -18 17 -39 14 -48 -4 -8 -1 -15 5 -15 13 0 -5 -51 -21
-62 -19 -11 -116 1 -156 20 -25 11 -38 25 -40 41 -6 37 10 43 59 22 45 -20 75
-25 119 -21 14 1 2 6 -28 11 -29 5 -67 16 -83 25 -30 15 -31 18 -27 72 3 55 2
57 -23 60 -15 2 -39 16 -54 32 -25 26 -27 33 -17 55 6 14 20 25 29 25 16 -1
15 -3 -5 -20 l-22 -19 22 -15 c29 -21 92 -21 112 0 9 8 16 18 16 20 0 3 -20
14 -45 25 -25 11 -45 23 -45 27 1 8 101 82 112 82 4 0 26 -17 49 -37z m-2800
-43 c13 -22 26 -40 31 -40 4 0 8 -4 8 -9 0 -5 -15 -5 -36 -1 -20 5 -44 6 -53
3 -14 -4 -14 -3 -1 6 13 9 13 11 -2 11 -9 0 -22 2 -30 3 -7 2 -9 2 -5 -1 9 -5
-11 -32 -25 -32 -5 0 -7 4 -4 9 4 5 -3 7 -14 4 -11 -3 -20 -9 -20 -14 0 -5 -5
-9 -12 -9 -6 0 -3 9 7 20 10 11 22 20 27 20 9 0 12 2 63 44 17 14 33 26 37 26
4 0 17 -18 29 -40z m-106 -79 c3 -6 -4 -9 -15 -8 -11 1 -20 5 -20 9 0 11 28
10 35 -1z m-1805 -15 c0 -8 -9 -24 -20 -37 -19 -24 -19 -24 -20 -2 0 12 7 29
16 37 19 20 24 20 24 2z m30 -12 c0 -8 -5 -12 -10 -9 -6 4 -8 11 -5 16 9 14
15 11 15 -7z m2088 -9 c-3 -3 -9 2 -12 12 -6 14 -5 15 5 6 7 -7 10 -15 7 -18z
m-91 -5 c3 -10 2 -11 -4 -4 -4 6 -15 14 -23 17 -11 5 -9 6 4 4 11 -1 21 -9 23
-17z m172 4 c2 -2 -7 -4 -20 -4 -14 0 -30 -5 -37 -12 -9 -9 -12 -9 -12 0 0 7
6 12 13 12 8 0 7 4 -3 10 -11 7 -5 8 20 4 19 -4 37 -8 39 -10z m1472 -126 c10
-57 23 -168 29 -248 9 -125 13 -147 30 -162 23 -19 26 -33 6 -25 -7 3 -19 0
-25 -6 -23 -23 -24 -20 -36 218 -3 72 -13 174 -21 227 -16 112 -16 114 -7 105
3 -4 14 -53 24 -109z m1114 92 c-27 -12 -35 -12 -35 0 0 6 12 10 28 9 24 0 25
-1 7 -9z m-5238 -20 c14 -11 22 -20 17 -20 -12 1 -61 39 -51 40 5 0 20 -9 34
-20z m236 -111 c-4 -4 -15 -4 -23 2 -12 9 -12 10 3 5 15 -5 17 -2 12 17 -5 20
-5 20 6 4 6 -11 7 -23 2 -28z m-46 15 c-3 -3 -12 -4 -19 -1 -8 3 -5 6 6 6 11
1 17 -2 13 -5z m5109 -112 c19 -11 19 -11 -2 -33 -20 -19 -24 -20 -50 -7 -32
15 -41 46 -24 78 l11 21 23 -24 c12 -13 31 -29 42 -35z m-4396 -272 c0 -22 -2
-25 -18 -22 -33 6 -43 12 -37 22 8 13 55 13 55 0z m60 -141 c22 -81 23 -119 5
-121 -14 -1 -41 95 -48 172 -6 57 -5 63 7 47 8 -10 24 -54 36 -98z m3328 -32
c34 -45 74 -96 88 -114 28 -35 26 -73 -5 -73 -25 0 -41 21 -99 130 -86 164
-81 183 16 57z m-1985 66 c-7 -2 -21 -2 -30 0 -10 3 -4 5 12 5 17 0 24 -2 18
-5z m2171 -168 c-4 -8 -11 -15 -16 -15 -6 0 -5 6 2 15 7 8 14 15 16 15 2 0 1
-7 -2 -15z m-2504 -179 c0 -3 -4 -8 -10 -11 -5 -3 -10 -1 -10 4 0 6 5 11 10
11 6 0 10 -2 10 -4z m-55 -54 c-8 -8 -25 10 -25 26 0 13 2 13 14 -4 8 -10 13
-21 11 -22z"/>
<path d="M1775 6678 c4 -13 11 -84 16 -158 15 -222 34 -320 62 -320 7 0 26 14
42 30 41 43 92 41 171 -6 86 -51 98 -65 96 -116 -1 -24 -9 -63 -16 -88 -8 -25
-23 -85 -32 -135 -9 -49 -18 -91 -19 -92 -1 -2 -35 29 -76 68 -41 39 -90 79
-110 89 -62 32 -78 106 -27 124 22 8 34 4 74 -22 52 -35 108 -43 118 -16 15
38 6 81 -22 108 -34 32 -94 45 -118 25 -9 -7 -44 -25 -78 -39 -59 -25 -61 -27
-68 -70 -4 -25 -13 -58 -20 -74 -10 -26 -14 -28 -50 -22 -42 7 -88 -1 -88 -15
0 -5 8 -9 18 -9 26 0 114 -38 207 -90 129 -72 217 -172 332 -380 66 -118 85
-149 103 -165 11 -10 22 -16 25 -13 3 2 -15 66 -39 141 -25 75 -50 163 -57
196 -13 66 -16 55 52 146 60 81 62 84 62 148 0 76 -11 129 -26 124 -21 -6 -96
-125 -110 -174 l-14 -47 -7 35 c-8 42 14 144 38 181 41 63 105 289 79 276 -5
-2 -29 -14 -54 -27 l-47 -24 -47 27 c-52 29 -136 56 -173 56 -13 0 -30 -7 -38
-15 -22 -22 -30 -19 -57 18 -26 34 -47 88 -47 119 0 33 31 88 49 88 22 0 71
-23 71 -32 0 -5 7 -8 15 -8 25 0 -31 75 -98 131 -64 54 -104 65 -92 27z"/>
<path d="M2486 6522 c-3 -5 1 -9 9 -9 8 0 12 4 9 9 -3 4 -7 8 -9 8 -2 0 -6 -4
-9 -8z"/>
<path d="M2522 6265 c0 -11 4 -31 8 -45 6 -20 8 -21 8 -5 0 11 -4 31 -8 45 -6
20 -8 21 -8 5z"/>
<path d="M2571 6184 c0 -11 3 -14 6 -6 3 7 2 16 -1 19 -3 4 -6 -2 -5 -13z"/>
<path d="M2581 6134 c0 -11 3 -14 6 -6 3 7 2 16 -1 19 -3 4 -6 -2 -5 -13z"/>
<path d="M2555 6130 c-3 -5 -1 -10 4 -10 6 0 11 5 11 10 0 6 -2 10 -4 10 -3 0
-8 -4 -11 -10z"/>
<path d="M2575 6069 c-4 -11 -4 -23 -1 -26 3 -4 6 1 6 10 0 8 5 17 12 19 9 3
9 6 1 11 -7 4 -14 -1 -18 -14z"/>
<path d="M2587 6030 c-21 -24 -21 -31 -3 -55 13 -18 14 -18 9 7 -3 14 0 35 6
47 15 26 10 27 -12 1z"/>
<path d="M2600 6001 c0 -6 5 -13 10 -16 6 -3 10 1 10 9 0 9 -4 16 -10 16 -5 0
-10 -4 -10 -9z"/>
<path d="M2641 5974 c0 -11 3 -14 6 -6 3 7 2 16 -1 19 -3 4 -6 -2 -5 -13z"/>
<path d="M2614 5956 c-3 -8 -1 -22 4 -32 7 -13 9 -10 8 15 -1 34 -4 38 -12 17z"/>
<path d="M1890 5365 c0 -5 5 -17 10 -25 5 -8 10 -10 10 -5 0 6 -5 17 -10 25
-5 8 -10 11 -10 5z"/>
<path d="M1976 5224 c-4 -9 -4 -19 -1 -22 2 -3 7 3 11 12 4 9 4 19 1 22 -2 3
-7 -3 -11 -12z"/>
<path d="M2180 5180 c-13 -8 -12 -10 3 -10 9 0 17 5 17 10 0 12 -1 12 -20 0z"/>
<path d="M2016 5145 c4 -8 10 -15 15 -15 4 0 6 7 3 15 -4 8 -10 15 -15 15 -4
0 -6 -7 -3 -15z"/>
<path d="M2100 5150 c0 -5 7 -10 15 -10 8 0 15 5 15 10 0 6 -7 10 -15 10 -8 0
-15 -4 -15 -10z"/>
<path d="M2070 5130 c0 -5 5 -10 10 -10 6 0 10 5 10 10 0 6 -4 10 -10 10 -5 0
-10 -4 -10 -10z"/>
<path d="M5613 6538 c-4 -7 -8 -29 -8 -50 0 -28 3 -34 13 -26 8 7 9 15 4 20
-24 24 20 70 49 52 8 -4 9 -3 5 4 -10 16 -53 15 -63 0z"/>
<path d="M5572 6460 c-8 -13 -8 -20 -2 -20 6 0 13 7 17 15 9 24 -1 27 -15 5z"/>
<path d="M5650 6461 c0 -5 7 -11 14 -14 10 -4 13 -1 9 9 -6 15 -23 19 -23 5z"/>
<path d="M5556 6404 c-5 -14 -4 -15 9 -4 17 14 19 20 6 20 -5 0 -12 -7 -15
-16z"/>
<path d="M5615 6389 c-4 -6 -5 -12 -2 -15 2 -3 7 2 10 11 7 17 1 20 -8 4z"/>
<path d="M5646 6385 c-9 -26 -7 -32 5 -12 6 10 9 21 6 23 -2 3 -7 -2 -11 -11z"/>
<path d="M5730 6350 c0 -5 -10 -10 -22 -10 -12 0 -19 -3 -15 -6 3 -4 23 -3 43
1 28 5 34 9 23 16 -19 12 -29 11 -29 -1z"/>
<path d="M5608 6343 c7 -3 16 -2 19 1 4 3 -2 6 -13 5 -11 0 -14 -3 -6 -6z"/>
<path d="M5851 6314 c0 -11 3 -14 6 -6 3 7 2 16 -1 19 -3 4 -6 -2 -5 -13z"/>
<path d="M4553 6356 c5 -15 31 -15 45 0 10 11 7 13 -18 11 -16 -1 -29 -6 -27
-11z"/>
<path d="M4643 6349 c-2 -23 3 -25 10 -4 4 8 3 16 -1 19 -4 3 -9 -4 -9 -15z"/>
<path d="M4615 6280 c-19 -8 -19 -9 2 -9 12 -1 25 4 28 9 7 12 -2 12 -30 0z"/>
<path d="M4704 6239 c-3 -6 -1 -16 5 -22 8 -8 11 -5 11 11 0 24 -5 28 -16 11z"/>
<path d="M5516 6097 c3 -10 9 -15 12 -12 3 3 0 11 -7 18 -10 9 -11 8 -5 -6z"/>
<path d="M5558 6074 c6 -3 12 -12 12 -19 0 -7 7 -16 16 -19 8 -3 12 -2 9 4 -3
6 -1 10 4 10 6 0 11 6 11 13 0 7 -13 13 -32 14 -18 1 -27 -1 -20 -3z"/>
<path d="M4470 5975 c7 -9 15 -13 17 -11 7 7 -7 26 -19 26 -6 0 -6 -6 2 -15z"/>
<path d="M4480 5910 c0 -5 5 -10 11 -10 5 0 7 5 4 10 -3 6 -8 10 -11 10 -2 0
-4 -4 -4 -10z"/>
<path d="M5660 5220 c8 -5 20 -10 25 -10 6 0 3 5 -5 10 -8 5 -19 10 -25 10 -5
0 -3 -5 5 -10z"/>
<path d="M5728 5223 c6 -2 18 -2 25 0 6 3 1 5 -13 5 -14 0 -19 -2 -12 -5z"/>
<path d="M5717 5198 c2 -5 13 -8 24 -8 10 0 19 3 19 8 0 4 -11 7 -24 7 -13 0
-22 -3 -19 -7z"/>
<path d="M5835 4960 c3 -5 8 -10 11 -10 2 0 4 5 4 10 0 6 -5 10 -11 10 -5 0
-7 -4 -4 -10z"/>
<path d="M4294 4714 c3 -9 6 -18 6 -20 0 -2 8 -4 18 -3 10 0 12 3 5 6 -7 2
-13 11 -13 19 0 8 -5 14 -11 14 -6 0 -8 -7 -5 -16z"/>
<path d="M3945 4640 c-3 -5 1 -10 9 -10 8 0 18 5 21 10 3 6 -1 10 -9 10 -8 0
-18 -4 -21 -10z"/>
<path d="M5375 4390 c3 -5 8 -10 11 -10 2 0 4 5 4 10 0 6 -5 10 -11 10 -5 0
-7 -4 -4 -10z"/>
<path d="M5555 4170 c-3 -5 -1 -10 5 -10 6 0 9 -4 6 -8 -2 -4 4 -8 14 -8 18 0
18 2 3 18 -19 21 -20 21 -28 8z"/>
<path d="M5493 4155 c-17 -18 -16 -23 2 -41 17 -17 17 -17 19 26 1 33 -3 36
-21 15z"/>
<path d="M5520 4140 c0 -5 5 -10 11 -10 5 0 7 5 4 10 -3 6 -8 10 -11 10 -2 0
-4 -4 -4 -10z"/>
<path d="M5610 4114 c8 -10 21 -25 28 -32 6 -7 12 -17 12 -22 0 -4 7 -10 14
-13 10 -4 13 -1 9 9 -3 7 -9 14 -13 14 -5 0 -11 8 -14 18 -3 9 -16 23 -28 31
-22 14 -22 13 -8 -5z"/>
<path d="M2880 3570 c0 -5 5 -10 11 -10 5 0 7 5 4 10 -3 6 -8 10 -11 10 -2 0
-4 -4 -4 -10z"/>
<path d="M2966 3537 c3 -10 9 -15 12 -12 3 3 0 11 -7 18 -10 9 -11 8 -5 -6z"/>
<path d="M3480 3546 c0 -2 8 -10 18 -17 15 -13 16 -12 3 4 -13 16 -21 21 -21
13z"/>
<path d="M2835 3426 c11 -8 24 -12 29 -8 5 3 1 9 -10 13 -31 12 -39 10 -19 -5z"/>
<path d="M4340 3305 c-7 -9 -8 -15 -2 -15 5 0 12 7 16 15 3 8 4 15 2 15 -2 0
-9 -7 -16 -15z"/>
<path d="M4446 3243 c-6 -14 -5 -15 5 -6 7 7 10 15 7 18 -3 3 -9 -2 -12 -12z"/>
<path d="M4392 3225 c-24 -28 -27 -35 -13 -35 5 0 13 9 16 21 4 12 13 18 20
15 9 -3 12 0 8 10 -7 18 -6 18 -31 -11z"/>
<path d="M3585 3090 c19 -8 73 -14 64 -6 -2 2 -22 6 -44 9 -28 5 -34 4 -20 -3z"/>
<path d="M3875 2649 c11 -6 31 -23 43 -38 l24 -26 -13 25 c-15 30 -38 49 -59
49 -10 0 -9 -3 5 -10z"/>
<path d="M3385 2485 c-22 -8 -42 -15 -44 -15 -6 0 10 -74 20 -90 6 -10 7 -4 3
16 -8 41 9 71 49 88 42 19 23 19 -28 1z"/>
<path d="M1125 3680 c3 -5 8 -10 11 -10 2 0 4 5 4 10 0 6 -5 10 -11 10 -5 0
-7 -4 -4 -10z"/>
<path d="M1160 3669 c0 -5 5 -7 10 -4 6 3 10 8 10 11 0 2 -4 4 -10 4 -5 0 -10
-5 -10 -11z"/>
<path d="M1128 3543 c6 -2 18 -2 25 0 6 3 1 5 -13 5 -14 0 -19 -2 -12 -5z"/>
<path d="M1103 3514 c16 -8 34 -13 40 -10 7 2 4 5 -5 5 -10 1 -18 6 -18 11 0
6 -10 10 -22 10 -22 -1 -21 -2 5 -16z"/>
<path d="M1143 3523 c9 -2 23 -2 30 0 6 3 -1 5 -18 5 -16 0 -22 -2 -12 -5z"/>
<path d="M1525 2695 c-16 -13 -25 -24 -20 -25 12 0 75 37 75 45 0 13 -28 3
-55 -20z"/>
<path d="M1587 2653 c-112 -116 -132 -151 -27 -47 35 35 59 64 54 64 -6 0 -18
-8 -27 -17z"/>
<path d="M1381 2432 c-15 -23 -25 -52 -25 -77 l-1 -40 44 -3 c39 -3 42 -5 36
-25 -16 -53 -17 -69 -4 -78 16 -10 70 -12 93 -3 20 8 21 53 2 80 -12 16 -18
17 -44 8 -27 -10 -31 -9 -36 8 -2 11 0 28 6 37 8 13 6 25 -6 49 -21 41 -37 40
-61 -4 -11 -20 -21 -32 -22 -27 -2 5 8 31 22 57 31 59 29 68 -4 18z"/>
<path d="M1595 2395 c-31 -25 -28 -33 4 -15 10 5 21 16 25 25 7 19 7 19 -29
-10z"/>
<path d="M1675 2240 c-3 -5 -2 -10 4 -10 5 0 13 5 16 10 3 6 2 10 -4 10 -5 0
-13 -4 -16 -10z"/>
<path d="M1583 2213 c9 -2 23 -2 30 0 6 3 -1 5 -18 5 -16 0 -22 -2 -12 -5z"/>
<path d="M550 2356 c0 -9 5 -16 10 -16 6 0 10 4 10 9 0 6 -4 13 -10 16 -5 3
-10 -1 -10 -9z"/>
<path d="M1701 1880 c-33 -42 -33 -57 0 -17 21 24 42 57 36 57 -2 0 -18 -18
-36 -40z"/>
<path d="M3230 1384 c0 -8 5 -12 10 -9 6 3 10 10 10 16 0 5 -4 9 -10 9 -5 0
-10 -7 -10 -16z"/>
<path d="M3420 1356 c0 -2 7 -7 16 -10 8 -3 12 -2 9 4 -6 10 -25 14 -25 6z"/>
<path d="M3503 1198 c15 -5 27 -15 27 -20 0 -6 3 -8 6 -5 11 11 -17 37 -40 36
-18 0 -17 -2 7 -11z"/>
<path d="M6565 6253 c-23 -6 -79 -62 -71 -71 3 -3 92 -9 198 -13 106 -5 208
-12 226 -15 17 -3 32 -3 32 2 0 20 -48 75 -75 85 -32 12 -276 22 -310 12z"/>
<path d="M6665 5868 c-18 -54 -72 -73 -124 -42 -26 16 -30 15 -77 -12 -113
-66 -234 -185 -234 -232 0 -92 118 -185 235 -186 124 0 274 100 318 212 24 61
23 172 -3 222 -23 45 -24 46 -72 55 -32 6 -37 4 -43 -17z"/>
<path d="M6833 1753 c-63 -8 -51 -14 140 -73 26 -9 27 -7 27 24 0 32 -1 34
-57 45 -31 6 -61 10 -67 9 -6 0 -26 -3 -43 -5z"/>
<path d="M6690 1692 c0 -4 9 -13 20 -20 28 -17 278 -142 285 -142 3 0 5 7 5
15 0 8 -6 15 -14 15 -13 0 -185 86 -236 118 -28 18 -60 26 -60 14z"/>
<path d="M6677 684 c-18 -57 -18 -59 -1 -69 10 -5 31 -23 47 -38 25 -23 29
-33 24 -62 -3 -19 -24 -61 -46 -93 -22 -31 -52 -86 -66 -122 -41 -101 -112
-199 -163 -226 -55 -29 -62 -35 -31 -32 20 3 24 -1 22 -19 l-3 -23 270 0 270
0 0 133 0 133 -101 83 c-55 46 -98 85 -96 88 3 2 46 -16 96 -41 50 -25 93 -46
96 -46 3 0 5 7 5 16 0 17 -13 30 -169 174 -110 101 -122 116 -130 169 -6 34
-6 33 -24 -25z m259 -275 c8 -13 -21 1 -51 26 -19 15 -18 15 12 1 17 -9 35
-21 39 -27z"/>
<path d="M1646 579 c-15 -52 -32 -107 -37 -122 -4 -16 -5 -27 -1 -25 74 38
126 59 137 54 21 -8 19 -1 -28 98 l-43 89 -28 -94z"/>
<path d="M6453 653 c15 -2 39 -2 55 0 15 2 2 4 -28 4 -30 0 -43 -2 -27 -4z"/>
<path d="M6526 563 l-59 -36 23 -19 c30 -24 108 -25 117 -1 4 11 -3 24 -23 39
-28 23 -28 24 -9 38 35 27 12 17 -49 -21z"/>
<path d="M2821 573 c-19 -4 -21 -7 -10 -15 10 -7 8 -8 -8 -3 -26 7 -65 -16
-69 -40 -3 -18 44 -53 85 -65 24 -6 42 -2 91 21 33 15 63 36 67 44 11 29 -22
48 -79 48 -37 -1 -47 1 -33 7 l20 9 -20 -1 c-11 0 -31 -3 -44 -5z"/>
<path d="M6500 466 c14 -8 41 -15 60 -14 l35 1 -40 7 c-22 4 -49 10 -60 14
-13 5 -11 2 5 -8z"/>
<path d="M3082 426 c-55 -41 -61 -49 -67 -90 -5 -31 -2 -60 9 -92 9 -26 16
-57 16 -69 0 -12 6 -29 13 -38 11 -15 18 -12 79 33 75 55 102 95 92 137 -19
90 -53 163 -75 163 -4 0 -34 -20 -67 -44z m77 20 c-2 -2 -15 -9 -29 -15 -24
-11 -24 -11 -6 3 16 13 49 24 35 12z m-64 -46 c-3 -5 -11 -10 -16 -10 -6 0 -7
5 -4 10 3 6 11 10 16 10 6 0 7 -4 4 -10z m61 -46 c26 -16 39 -61 23 -80 -6 -8
-8 -14 -3 -15 21 -1 -44 -22 -76 -24 -44 -2 -70 25 -70 72 0 54 17 71 64 66
23 -3 51 -11 62 -19z"/>
<path d="M6606 462 c-2 -4 3 -16 11 -27 13 -17 15 -17 10 -2 -5 12 0 20 16 27
21 8 21 9 -5 9 -15 1 -29 -2 -32 -7z"/>
<path d="M1750 450 c0 -5 5 -10 11 -10 5 0 7 5 4 10 -3 6 -8 10 -11 10 -2 0
-4 -4 -4 -10z"/>
<path d="M1678 421 c-57 -36 -64 -47 -43 -68 14 -14 18 -14 26 -2 5 8 9 21 9
29 0 8 15 27 33 42 41 36 33 35 -25 -1z"/>
<path d="M3657 319 c7 -7 15 -10 18 -7 3 3 -2 9 -12 12 -14 6 -15 5 -6 -5z"/>
<path d="M6130 196 c0 -2 7 -9 15 -16 13 -11 14 -10 9 4 -5 14 -24 23 -24 12z"/>
</g>
</svg>
